{"title":"Godzilla.2014.WEBRiP.XviD-VAiN","uid":10704530,"size":2605989798,"categoryP":"video","categoryS":"movies","magnet":"?xt=urn:btih:961a8702565112019650c71db549e8b5d4d8b9ec&amp;dn=Godzilla.2014.WEBRiP.XviD-VAiN&amp;tr=udp%3A%2F%2Ftracker.openbittorrent.com%3A80&amp;tr=udp%3A%2F%2Fopen.demonii.com%3A1337&amp;tr=udp%3A%2F%2Ftracker.coppersurfer.tk%3A6969&amp;tr=udp%3A%2F%2Fexodus.desync.com%3A6969","seeders":10,"leechers":2,"uploader":"xxxlavalxxx","files":-1,"time":1407263976,"description":"[IMG]http://i.imgur.com/KO3P9zL.jpg[/IMG]\n\n &lt;a href=&quot;\nhttp://www.imdb.com/title/tt0831387/&quot; rel=&quot;nofollow&quot; target=&quot;_NEW&quot;&gt;\nhttp://www.imdb.com/title/tt0831387/&lt;/a&gt;\n\n\nThe world's most famous monster is pitted against malevolent creatures who, bolstered by humanity's scientific arrogance, threaten our very existence.\n\nDirector: Gareth Edwards\nWriters: Max Borenstein (screenplay), Dave Callaham (story)\nStars: Aaron Taylor-Johnson, Elizabeth Olsen, Bryan Cranston \nGenres: Action | Adventure | Sci-Fi\nCountry: USA | Japan\nLanguage: English\n\n\nGeneral\nFormat                                   : AVI\nFormat/Info                              : Audio Video Interleave\nFormat profile                           : OpenDML\nFile size                                : 2.39 GiB\nDuration                                 : 1h 58mn\nOverall bit rate                         : 2 897 Kbps\nWriting application                      : VirtualDubMod 1.5.10.2 (build 2540/release)\nWriting library                          : VirtualDubMod build 2540/release\n\nVideo\nID                                       : 0\nFormat                                   : MPEG-4 Visual\nFormat profile                           : Advanced Simple@L5\nFormat settings, BVOP                    : 1\nFormat settings, QPel                    : No\nFormat settings, GMC                     : No warppoints\nFormat settings, Matrix                  : Default (H.263)\nCodec ID                                 : XVID\nCodec ID/Hint                            : XviD\nDuration                                 : 1h 58mn\nBit rate                                 : 2 501 Kbps\nWidth                                    : 1 280 pixels\nHeight                                   : 496 pixels\nDisplay aspect ratio                     : 2.581\nFrame rate                               : 25.000 fps\nColor space                              : YUV\nChroma subsampling                       : 4:2:0\nBit depth                                : 8 bits\nScan type                                : Progressive\nCompression mode                         : Lossy\nBits/(Pixel*Frame)                       : 0.158\nStream size                              : 2.06 GiB (86%)\nWriting library                          : XviD 1.2.1 (UTC 2008-12-04)\n\nAudio\nID                                       : 1\nFormat                                   : AC-3\nFormat/Info                              : Audio Coding 3\nMode extension                           : CM (complete main)\nFormat settings, Endianness              : Big\nCodec ID                                 : 2000\nDuration                                 : 1h 58mn\nBit rate mode                            : Constant\nBit rate                                 : 384 Kbps\nChannel(s)                               : 2 channels\nChannel positions                        : Front: L R\nSampling rate                            : 44.1 KHz\nBit depth                                : 16 bits\nCompression mode                         : Lossy\nStream size                              : 324 MiB (13%)\nAlignment                                : Split accross interleaves\nInterleave, duration                     : 40 ms (1.00 video frame)\nInterleave, preload duration             : 500 ms\n\n\n\n\nE N C O D E R S . N O T E S . . .       \n\nSOURCE......: video:720pHDScr\n............: audio:720pHDScr\nSAMPLE......: Yes\nADDED NOTE..: video is pretty nice. like said when cams were being dropped - dark scense are and will always be dark. is it watchable? dunno, i will add 2 samples for quality and darkness so complaining about dark spots can see for your self. \nthe sors used was called a HDScr and had HC subs - we took care of that. as far a title, sure all teh experts will let us know how wrong or right it is... \n\n\nscreens\n &lt;a href=&quot;\nhttp://i.imgur.com/XOae6xr.jpg&quot; rel=&quot;nofollow&quot; target=&quot;_NEW&quot;&gt;\nhttp://i.imgur.com/XOae6xr.jpg&lt;/a&gt; &lt;a href=&quot;\nhttp://i.imgur.com/Ed38Yna.jpg&quot; rel=&quot;nofollow&quot; target=&quot;_NEW&quot;&gt;\nhttp://i.imgur.com/Ed38Yna.jpg&lt;/a&gt; &lt;a href=&quot;\nhttp://i.imgur.com/U9W51lb.jpg&quot; rel=&quot;nofollow&quot; target=&quot;_NEW&quot;&gt;\nhttp://i.imgur.com/U9W51lb.jpg&lt;/a&gt; &lt;a href=&quot;\nhttp://i.imgur.com/o9N9HcG.jpg&quot; rel=&quot;nofollow&quot; target=&quot;_NEW&quot;&gt;\nhttp://i.imgur.com/o9N9HcG.jpg&lt;/a&gt; &lt;a href=&quot;\nhttp://i.imgur.com/8Zmcid4.jpg&quot; rel=&quot;nofollow&quot; target=&quot;_NEW&quot;&gt;\nhttp://i.imgur.com/8Zmcid4.jpg&lt;/a&gt; &lt;a href=&quot;\nhttp://i.imgur.com/PHhfic2.jpg&quot; rel=&quot;nofollow&quot; target=&quot;_NEW&quot;&gt;\nhttp://i.imgur.com/PHhfic2.jpg&lt;/a&gt;","torrent":{"xt":"urn:btih:961a8702565112019650c71db549e8b5d4d8b9ec","amp;dn":"Godzilla.2014.WEBRiP.XviD-VAiN","amp;tr":["udp%3A%2F%2Ftracker.openbittorrent.com%3A80","udp%3A%2F%2Fopen.demonii.com%3A1337","udp%3A%2F%2Ftracker.coppersurfer.tk%3A6969","udp%3A%2F%2Fexodus.desync.com%3A6969"],"infoHash":"961a8702565112019650c71db549e8b5d4d8b9ec","infoHashBuffer":{"type":"Buffer","data":[150,26,135,2,86,81,18,1,150,80,199,29,181,73,232,181,212,216,185,236]},"announce":[],"urlList":[]}}